<svg xmlns="http://www.w3.org/2000/svg" width="20" height="15" fill="none">
  <path fill="#fff" d="M0 5.781V.938C0 .417.418 0 .938 0H5.78a.47.47 0 01.469.469v.937a.47.47 0 01-.469.469H1.875v3.906a.47.47 0 01-.469.469H.47A.47.47 0 010 5.781zM13.75.47v.937c0 .258.21.469.469.469h3.906v3.906c0 .258.21.469.469.469h.937A.47.47 0 0020 5.781V.938A.935.935 0 0019.062 0H14.22a.47.47 0 00-.469.469zm5.781 8.281h-.937a.47.47 0 00-.469.469v3.906h-3.906a.47.47 0 00-.469.469v.937c0 .258.21.469.469.469h4.844c.519 0 .937-.418.937-.938V9.22a.47.47 0 00-.469-.469zM6.25 14.531v-.937a.47.47 0 00-.469-.469H1.875V9.219a.47.47 0 00-.469-.469H.47A.47.47 0 000 9.219v4.844c0 .519.418.937.938.937H5.78a.47.47 0 00.469-.469z"/>
</svg>
